<?xml version="1.0" encoding="utf-8"?>
<!-- Generator: Adobe Illustrator 16.0.0, SVG Export Plug-In . SVG Version: 6.00 Build 0)  -->
<!DOCTYPE svg PUBLIC "-//W3C//DTD SVG 1.1//EN" "http://www.w3.org/Graphics/SVG/1.1/DTD/svg11.dtd">
<svg version="1.1" id="圖層_1" xmlns="http://www.w3.org/2000/svg" xmlns:xlink="http://www.w3.org/1999/xlink" x="0px" y="0px"
	 width="2048px" height="512px" viewBox="0 0 2048 512" enable-background="new 0 0 2048 512" xml:space="preserve">
<path fill="#00A0E9" d="M512,413c0,54.676-44.791,99-100.042,99H100.042C44.79,512,0,467.676,0,413V99C0,44.324,44.79,0,100.042,0
	h311.916C467.209,0,512,44.324,512,99V413z"/>
<circle fill="none" stroke="#FFFFFF" stroke-width="70" stroke-miterlimit="10" cx="256" cy="256" r="173"/>
<polygon fill="#00A0E9" points="195.561,170.517 120.721,64.667 233.953,41.676 245.063,149.666 "/>
<polygon fill="#00A0E9" points="242.833,385.995 233.137,478.274 131.266,432.419 176.432,368.54 "/>
<path fill="#00A0E9" d="M827.608,249.52c0,40.238-10.063,74.462-30.176,102.671c-19.136,27.232-41.463,40.848-66.976,40.848h-125.12
	V124.768h129.168c21.344,0,41.337,10.183,59.984,30.544C816.568,179.6,827.608,211.006,827.608,249.52z M772.041,253.936
	c0-21.833-4.542-40.849-13.616-57.041c-9.568-17.169-21.591-25.76-36.064-25.76h-61.824v175.903h50.784
	c17.906,0,32.505-8.279,43.792-24.84C766.394,305.639,772.041,282.887,772.041,253.936z"/>
<path fill="#00A0E9" d="M1036.626,293.68c0,5.889-0.367,11.166-1.104,15.824H903.411c-0.495,1.471-0.736,3.807-0.736,6.992
	c0,13.006,4.008,23.494,12.029,31.463c8.021,7.977,18.475,11.961,31.36,11.961c8.51,0,16.411-2.449,23.702-7.361
	c6.561-4.656,10.695-9.936,12.397-15.822h52.256c-6.871,19.383-18.952,34.959-36.248,46.734
	c-17.296,11.777-36.616,17.664-57.96,17.664c-23.799,0-43.792-7.486-59.984-22.447c-19.383-17.906-29.072-43.545-29.072-76.912
	c0-35.816,7.786-63.353,23.368-82.616c15.577-19.257,37.961-28.888,67.16-28.888c28.457,0,51.394,9.511,68.816,28.52
	C1027.915,237.807,1036.626,262.768,1036.626,293.68z M982.163,274.912c-1.489-27.721-14.364-41.584-38.629-41.584
	c-24.518,0-38.134,13.863-40.859,41.584H982.163z"/>
<path fill="#00A0E9" d="M1219.891,393.039h-164.496v-42.32l98.624-114.815h-91.632v-42.32h154.561v42.487l-97.031,114.648h99.975
	V393.039z"/>
<path fill="#231815" d="M1495.241,393.039h-67.063L1342.44,276.01l-28.71,30.912v86.117h-55.199V124.768h55.199v117.76
	l104.88-117.76h66.027L1378.28,240.866L1495.241,393.039z"/>
<path fill="#231815" d="M1735.453,124.768l-91.264,268.271h-47.473l-90.896-268.271h55.568l59.248,202.031l58.88-202.031H1735.453z"
	/>
<path fill="#231815" d="M2028.011,393.039h-55.2V175.184l-47.834,217.855h-55.206l-47.84-216.751v216.751h-55.2V124.768h80.765
	l49.847,205.379l50.376-205.379h80.293V393.039z"/>
<polygon fill="#FFFFFF" points="182.472,190.902 256.393,256.001 182.472,321.101 "/>
<polygon fill="#FFFFFF" points="329.527,321.099 255.606,256.001 329.527,190.9 "/>
</svg>
